<svg xmlns="http://www.w3.org/2000/svg" viewBox="0 0 32 32" width="32" height="32">
  <rect width="32" height="32" rx="7" fill="#007aff"/>
  <g transform="translate(16,16)">
    <!-- Gear teeth -->
    <path d="M0,-11 L2,-11 L3,-8.5 L5.5,-7 L8,-8.5 L9.5,-7 L8,-4.5 L8.5,-2 L11,0 L11,2 L8.5,3 L7,5.5 L8.5,8 L7,9.5 L4.5,8 L2,8.5 L0,11 L-2,11 L-3,8.5 L-5.5,7 L-8,8.5 L-9.5,7 L-8,4.5 L-8.5,2 L-11,0 L-11,-2 L-8.5,-3 L-7,-5.5 L-8.5,-8 L-7,-9.5 L-4.5,-8 L-2,-8.5 Z" fill="#fff" opacity="0.95"/>
    <!-- Center hole -->
    <circle cx="0" cy="0" r="4" fill="#007aff"/>
  </g>
</svg>
